PathFileType	4	(X/Y/Z)	Run_500 02
DataRate	CameraRate	NumFrames	NumMarkers	Units	OrigDataRate	OrigDataStartFrame	OrigNumFrames
120	120	4	42	mm	120	162	128
Frame#	Time	LASI			RASI			LPSI			RPSI			RTH1			RTH2			RTH3			LTH1			LTH2			LTH3			RTB1			RTB2			RTB3			LTB1			LTB2			LTB3			RCAL			RTOE			RMT5			LCAL			LTOE			LMT5			LACR			RACR			CLAV			C7			RUA1			RUA2			RUA3			RLEL			RMEL			LUA1			LUA2			LUA3			LLEL			LMEL			RFAsuperior			RFAradius			RFAulna			LFAsuperior			LFAradius			LFAulna		
		X1	Y1	Z1	X2	Y2	Z2	X3	Y3	Z3	X4	Y4	Z4	X5	Y5	Z5	X6	Y6	Z6	X7	Y7	Z7	X8	Y8	Z8	X9	Y9	Z9	X10	Y10	Z10	X11	Y11	Z11	X12	Y12	Z12	X13	Y13	Z13	X14	Y14	Z14	X15	Y15	Z15	X16	Y16	Z16	X17	Y17	Z17	X18	Y18	Z18	X19	Y19	Z19	X20	Y20	Z20	X21	Y21	Z21	X22	Y22	Z22	X23	Y23	Z23	X24	Y24	Z24	X25	Y25	Z25	X26	Y26	Z26	X27	Y27	Z27	X28	Y28	Z28	X29	Y29	Z29	X30	Y30	Z30	X31	Y31	Z31	X32	Y32	Z32	X33	Y33	Z33	X34	Y34	Z34	X35	Y35	Z35	X36	Y36	Z36	X37	Y37	Z37	X38	Y38	Z38	X39	Y39	Z39	X40	Y40	Z40	X41	Y41	Z41	X42	Y42	Z42	

162	  1.350000	824.366132	969.037978	-494.160724	794.734637	976.475298	-253.926731	647.454542	988.482537	-425.453282	634.630194	988.281829	-338.122416	810.037383	802.232964	-210.162104	917.255529	722.718856	-242.534219	894.522227	577.560620	-249.424926	772.219226	815.340853	-543.167691	806.680004	697.127840	-540.675828	718.915613	575.624834	-549.506052	981.766030	389.529368	-330.759125	948.697357	324.206782	-279.386326	947.225843	212.917911	-355.425098	587.846870	471.316878	-477.514012	507.706044	557.839506	-522.395628	433.662961	581.180421	-447.650511	816.372122	 99.792052	-355.899576	1035.447845	 67.674497	-367.433095	1003.471217	 63.659725	-274.274917	390.909014	727.723114	-450.119654	263.929558	551.696755	-423.719128	238.498233	592.523798	-502.931069	849.762592	1430.590438	-532.000681	756.973483	1421.050844	-176.790423	888.560362	1378.887464	-302.398478	771.224200	1473.964556	-363.521253	697.064090	1343.713516	-104.021017	699.002560	1278.523486	-80.288823	591.342765	1285.411550	-85.981426	582.104661	1221.247325	-20.693230	560.351342	1177.327094	-94.805180	814.862901	1374.369364	-597.732037	735.071558	1337.580029	-608.859604	789.654302	1293.316183	-648.915424	746.198414	1203.754604	-707.372523	669.904760	1186.207843	-661.666593	656.503699	1192.171156	  5.310791	815.404145	1124.174539	  2.877618	768.858936	1075.981372	 23.620107	802.371945	1170.832538	-675.207449	882.613415	1094.692116	-530.524776	860.474019	1043.996426	-570.659131	
163	  1.358333	822.762289	962.223568	-493.118786	789.457913	971.246108	-252.707275	643.635436	982.232062	-427.588574	627.533008	984.408840	-340.491309	803.751037	800.555620	-208.580169	912.108606	721.367448	-241.171036	889.349680	576.712244	-248.569678	777.160250	810.267128	-541.572189	815.500836	694.848462	-541.013403	736.032506	568.138985	-549.723034	964.872958	386.970348	-333.223147	928.597852	324.965688	-281.375177	917.232986	213.033312	-358.269616	613.846532	468.440242	-478.185444	534.660710	555.472498	-523.606466	462.158729	580.836567	-448.479821	775.719595	101.310618	-357.378727	994.206830	 66.542377	-367.380608	962.108105	 64.515404	-275.045846	420.912550	729.306162	-449.729579	293.581133	552.693509	-428.039817	270.845264	593.875669	-508.382012	845.439678	1425.781644	-531.906781	759.174308	1415.385887	-172.356217	890.715189	1371.615409	-302.914569	770.129400	1468.827665	-360.220426	702.953140	1330.478490	-101.282642	707.393965	1265.301832	-78.405553	599.574501	1269.194015	-79.965771	594.574071	1204.148247	-16.893751	572.680774	1159.253482	-90.611693	807.624450	1370.199538	-596.542709	726.842966	1334.780894	-603.904693	779.415661	1290.350516	-646.954616	731.866477	1202.688395	-705.536477	657.578754	1185.500208	-657.444971	671.326998	1178.958676	  5.749205	832.014345	1119.373229	 -0.479954	788.351268	1068.655210	 20.968314	787.531225	1165.628697	-676.952100	871.800509	1078.520352	-541.108360	845.651207	1030.761268	-583.209697	
164	  1.366667	820.380208	956.421570	-492.043221	784.530986	969.148700	-250.568155	640.186978	979.433204	-430.411933	622.371462	983.410716	-343.561174	797.140580	799.209569	-207.591598	904.676482	718.118008	-240.653456	879.472847	573.738066	-248.613868	781.983398	807.227791	-539.941828	825.626235	694.666795	-540.576677	755.932313	563.321409	-549.859637	945.489353	382.564258	-332.688424	903.595482	323.480426	-280.360900	885.532957	211.401542	-356.656977	642.435745	466.077891	-478.005125	563.416738	551.930941	-524.953159	491.147330	577.999420	-449.569427	735.588101	102.564046	-357.993045	953.490797	 66.119887	-367.019578	921.125203	 64.747983	-275.323162	447.778726	728.258848	-450.377654	323.618768	549.016184	-431.524589	302.739234	589.326195	-513.236417	840.605189	1422.269077	-531.767230	761.492983	1410.723262	-167.695261	892.327805	1365.470413	-303.599067	769.405622	1465.528678	-356.851573	709.184407	1318.897552	-99.271501	716.518150	1253.586752	-77.523524	608.788313	1254.137093	-75.090006	609.015557	1187.948369	-14.030607	586.406444	1142.167886	-87.023642	800.343467	1367.370796	-595.370516	718.690372	1332.516025	-598.267724	769.178299	1288.883015	-644.784852	717.672932	1202.833860	-703.187563	645.645550	1185.423852	-652.453924	687.858536	1167.187924	  4.670245	849.750277	1116.124000	 -5.838876	809.087911	1063.089788	 16.289880	772.932721	1161.928924	-678.408317	860.343582	1064.095890	-552.257570	830.452979	1019.748626	-596.362130	
165	  1.375000	817.635291	952.375786	-491.158298	780.960146	969.549711	-247.467297	637.551689	979.826658	-433.141969	620.090732	984.536108	-346.573964	790.050070	797.390758	-207.140962	894.029781	711.619578	-240.332772	863.901790	568.122742	-249.706992	786.333024	806.211545	-538.390723	837.668307	696.701050	-539.203943	778.536171	561.900114	-550.018325	923.096139	374.931112	-330.748981	874.579686	318.166361	-278.221512	851.657354	206.981418	-353.157173	672.984883	464.678117	-476.659985	593.644705	547.661071	-526.185386	519.990509	573.212946	-450.620577	695.680244	103.577825	-357.996179	913.217368	 65.351818	-367.137371	880.446692	 64.187052	-275.266470	470.623372	724.763355	-451.940453	353.555375	540.842595	-433.995945	333.931516	578.961211	-517.308528	835.479197	1420.266624	-531.510724	764.047968	1407.130042	-163.457047	893.129063	1361.135213	-304.334775	769.060880	1464.039622	-353.803756	715.492414	1309.946101	-98.122235	726.055004	1244.402166	-77.691678	618.692229	1240.774757	-72.436683	624.923559	1173.489055	-12.299200	601.453872	1127.006930	-84.402924	793.082999	1366.205324	-594.250653	710.742077	1331.061488	-592.202688	758.839334	1289.187560	-642.584902	703.808341	1204.577512	-700.500487	634.321559	1186.315748	-646.975847	705.540735	1157.255349	  2.339435	868.347331	1115.010037	-13.306845	830.921817	1059.726049	  9.167256	758.940599	1160.438093	-679.440189	848.372677	1052.100350	-563.727538	815.055047	1011.598696	-609.613048	
